<?xml version="1.0" standalone="no"?><!DOCTYPE svg PUBLIC "-//W3C//DTD SVG 1.1//EN" "http://www.w3.org/Graphics/SVG/1.1/DTD/svg11.dtd"><svg class="icon" width="200px" height="199.80px" viewBox="0 0 1025 1024" version="1.1" xmlns="http://www.w3.org/2000/svg"><path fill="#ffffff" d="M512.705 459.035c58.504 0 105.931-47.427 105.931-105.931s-47.427-105.931-105.931-105.931S406.774 294.6 406.774 353.104s47.427 105.931 105.931 105.931zM636.291 820.966c0-11.413-33.693-21.14-80.927-24.863 3.544-3.511 7.331-7.311 11.327-11.386 25.198-25.699 58.815-62.438 92.47-106.604 66.769-87.618 136.027-207.474 136.027-329.655 0-75.697-24.948-145.33-73.453-196.164-48.65-50.986-119.68-81.673-209.03-81.673s-160.38 30.687-209.029 81.673c-48.506 50.834-73.454 120.467-73.454 196.164 0 117.594 69.341 237.491 135.958 326.081 33.619 44.707 67.199 82.289 92.366 108.692 4.397 4.613 8.54 8.888 12.386 12.803-47.699 3.67-81.813 13.447-81.813 24.932 0 14.626 55.331 26.483 123.586 26.483s123.586-11.857 123.586-26.483zM394.402 653.317c-65.796-87.497-128.869-199.441-128.869-304.859 0-67.997 22.342-128.456 63.689-171.788 41.203-43.181 102.587-70.739 183.483-70.739s142.28 27.558 183.483 70.739c41.347 43.332 63.689 103.791 63.689 171.788 0 110.124-63.155 222.108-128.801 308.253-32.551 42.717-65.141 78.341-89.598 103.284-11.709 11.943-21.531 21.413-28.56 28.015-7.056-6.852-16.971-16.719-28.813-29.142-24.488-25.691-57.115-62.215-89.703-105.551zM150.648 735.935a17.654 17.654 0 0 1 16.749-12.073h142.274c9.75 0 17.655-7.904 17.655-17.655 0-9.75-7.905-17.655-17.655-17.655H167.397c-22.798 0-43.038 14.588-50.248 36.216l-58.7 176.099c-5.715 17.149 7.049 34.858 25.124 34.858h858.264c18.076 0 30.84-17.709 25.124-34.858l-58.7-176.099c-7.209-21.628-27.45-36.216-50.248-36.216H715.74c-9.751 0-17.656 7.905-17.656 17.655 0 9.751 7.905 17.655 17.656 17.655h142.273c7.6 0 14.347 4.863 16.75 12.073l54.826 164.479H95.821l54.827-164.479z" /></svg>