<?xml version="1.0" standalone="no"?><!DOCTYPE svg PUBLIC "-//W3C//DTD SVG 1.1//EN" "http://www.w3.org/Graphics/SVG/1.1/DTD/svg11.dtd"><svg class="icon" width="200px" height="200.00px" viewBox="0 0 1024 1024" version="1.1" xmlns="http://www.w3.org/2000/svg"><path fill="#ffffff" d="M953.148159 916.117299L700.209577 663.184859c52.608252-62.547107 84.352792-143.200602 84.352792-231.132897 0-198.30611-161.334635-359.628458-359.631529-359.628457-198.290751 0-359.625386 161.323372-359.625386 359.628457 0 198.296895 161.32542 359.622314 359.625386 359.622314 95.443518 0 182.30483-37.383077 246.754315-98.257155l252.081591 252.080567a20.714224 20.714224 0 0 0 14.690707 6.078807 20.727535 20.727535 0 0 0 14.690706-6.078807c8.110196-8.120435 8.110196-21.26917 0-29.380389zM424.93084 750.126034c-175.389508 0-318.078167-142.688659-318.078167-318.074072 0-175.389508 142.688659-318.078167 318.078167-318.078167 175.390532 0 318.079191 142.688659 318.079191 318.078167 0 175.385413-142.688659 318.074072-318.079191 318.074072z" /></svg>